<svg xmlns="http://www.w3.org/2000/svg" width="580" height="200" viewBox="0 0 580 200" role="img" aria-labelledby="title desc">
  <title id="title">AIOps Engineering Handbook</title>
  <desc id="desc">Production architecture and field notes for building AIOps systems.</desc>
  <defs>
    <linearGradient id="bg" x1="0" y1="0" x2="1" y2="1">
      <stop stop-color="#111827"/><stop offset="1" stop-color="#080D18"/>
    </linearGradient>
    <linearGradient id="accent" x1="0" y1="0" x2="1" y2="0">
      <stop stop-color="#22D3EE"/><stop offset="1" stop-color="#3B82F6"/>
    </linearGradient>
    <filter id="glow" x="-50%" y="-50%" width="200%" height="200%"><feGaussianBlur stdDeviation="7"/></filter>
  </defs>
  <rect x="1" y="1" width="578" height="198" rx="16" fill="url(#bg)" stroke="#263248"/>
  <path d="M17 1h546a16 16 0 0 1 16 16v1H1v-1A16 16 0 0 1 17 1Z" fill="url(#accent)" opacity=".9"/>
  <circle cx="526" cy="48" r="34" fill="#22D3EE" opacity=".08" filter="url(#glow)"/>
  <g transform="translate(28 36)" fill="none" stroke="#67E8F9" stroke-width="2" stroke-linecap="round" stroke-linejoin="round">
    <path d="M2 3h13a5 5 0 0 1 5 5v25H7a5 5 0 0 0-5 5V3Z"/><path d="M38 3H25a5 5 0 0 0-5 5v25h13a5 5 0 0 1 5 5V3Z"/>
  </g>
  <g font-family="Inter,Segoe UI,Arial,sans-serif">
    <text x="82" y="49" fill="#F8FAFC" font-size="18" font-weight="700">aiops-engineering-handbook</text>
    <text x="82" y="70" fill="#67E8F9" font-size="12" font-weight="600" letter-spacing=".5">PRODUCTION ARCHITECTURE &amp; FIELD NOTES</text>
    <text x="28" y="108" fill="#A9B4C7" font-size="13.5">A practical map from observability and anomaly detection</text>
    <text x="28" y="129" fill="#A9B4C7" font-size="13.5">to RCA, safe remediation, evaluation, and operations.</text>
    <g font-size="11" font-weight="600">
      <rect x="28" y="153" width="55" height="24" rx="12" fill="#17243A"/><text x="42" y="169" fill="#7DD3FC">AIOps</text>
      <rect x="91" y="153" width="48" height="24" rx="12" fill="#17243A"/><text x="105" y="169" fill="#93C5FD">SRE</text>
      <rect x="147" y="153" width="64" height="24" rx="12" fill="#17243A"/><text x="160" y="169" fill="#BFDBFE">Python</text>
    </g>
    <text x="525" y="169" fill="#64748B" font-size="12">↗ open</text>
  </g>
</svg>
